<svg id="Calque_1" data-name="Calque 1" xmlns="http://www.w3.org/2000/svg" viewBox="0 0 1522.85 224.16"><defs><style>.cls-1{fill:#d10a11;}</style></defs><title>etml-es</title><path d="M916,392c16.11,0,31.59-.05,47.07.13,1,0,2.53,1.63,2.94,2.81.52,1.49.16,3.29.16,4.95q0,72.24,0,144.49c0,11.69,5.6,18.07,17.29,19.6a58,58,0,0,0,7.46.44q44.51,0,89,0c7,0,7.24.31,7.25,7.42,0,12.16,0,24.33,0,36.49,0,2.29-.33,4.58-.53,7.26-2.21.1-4,.24-5.75.24-37.16,0-74.33.3-111.49-.09-22.32-.24-39.9-9.47-49.51-30.53a42.21,42.21,0,0,1-4-16.74c-.29-57.16-.18-114.32-.17-171.48C915.64,395.55,915.83,394.08,916,392Z" transform="translate(-165.94 -391.88)"/><path d="M409.71,392H632.47c6.6,0,6.62,0,6.62,6.42q0,49.23,0,98.45c0,6.63-.54,7.19-7.05,7.21-12.49,0-25-.1-37.48.06-4.68.06-6.59-1.69-6.54-6.46.15-16,.08-32,0-48,0-6.58-.55-7.09-7.15-7.09H467c-6.41,0-6.72.29-6.73,6.79,0,16,0,32,0,48,0,5.95-.66,6.66-6.56,6.68-12.83.05-25.66-.05-38.48.05-4.21,0-6-1.67-6-5.95q.11-51,.06-102A42,42,0,0,1,409.71,392Z" transform="translate(-165.94 -391.88)"/><path d="M498.71,547.05q0-30.7,0-61.42c0-6.9.26-7.18,6.9-7.2,12.49,0,25,.13,37.46-.06,4.77-.07,6.73,1.3,6.71,6.52-.19,41.12-.1,82.23-.12,123.35,0,7.62,0,7.62-7.86,7.62H506.35c-7.59,0-7.62,0-7.63-7.88Q498.69,577.51,498.71,547.05Z" transform="translate(-165.94 -391.88)"/><path d="M665.74,392h6.64c39.82,0,79.64.14,119.46-.05,23-.11,42.77,8.37,60.27,22.49,17.66,14.27,28.88,32.92,34,55a114.46,114.46,0,0,1,2.78,24.76c.28,38,.13,76,.12,114,0,7.76,0,7.76-7.75,7.76H844.74c-6.32,0-6.72-.33-6.74-6.87q-.06-30.24,0-60.47c0-17.66.12-35.33,0-53-.11-12.76-3.12-24.65-11.57-34.73-9.38-11.21-21.47-17.63-35.88-18-22.48-.63-45-.18-67.47-.16-6.23,0-6.77.56-6.77,6.94q0,78.72,0,157.45c0,8.86,0,8.86-9,8.86-12.33,0-24.66-.1-37,.07-3.26.05-4.61-1.1-4.52-4.23,0-1.17,0-2.33,0-3.5V392Z" transform="translate(-165.94 -391.88)"/><path d="M802,615.85c-15.79,0-31.1.06-46.4-.12-1.1,0-2.64-1.61-3.13-2.81-.59-1.46-.34-3.28-.35-4.94q0-61.23,0-122.47c0-7.05,0-7.07,6.84-7.08,9.67,0,19.33-.07,29,0,8.64.08,14.58,5.71,14.6,14.31q.18,59,0,118A47.1,47.1,0,0,1,802,615.85Z" transform="translate(-165.94 -391.88)"/><path d="M166,392h5.65q102.23,0,204.47-.1c4.72,0,6.32,1.11,6.19,6-.35,12.82-.3,25.66,0,38.49.1,4.84-1.54,6.29-6.31,6.27q-75.49-.19-151-.08c-8.51,0-8.52,0-8.53,8.69q0,31.5,0,63a47.93,47.93,0,0,0,11.67,32.09c11,13,25.43,18.07,42.05,18.06q52,0,104,0c8,0,8,0,8,8.13q0,19,0,38c0,3-.17,5.4-4.48,5.37-39-.24-78,.62-117-.73-24.1-.84-45.66-10.25-63.52-27.37a101.57,101.57,0,0,1-27.71-45.38,81.29,81.29,0,0,1-3.33-22c-.31-40.82-.15-81.65-.15-122.48Z" transform="translate(-165.94 -391.88)"/><path d="M317.33,478.42c19.49,0,39,.16,58.48-.1,5.15-.07,6.57,1.7,6.46,6.64-.29,12.83-.25,25.66,0,38.49.08,4.4-1.41,5.72-5.76,5.71-35.82-.15-71.64,0-107.46-.11-11.48,0-16.73-5.38-16.75-16.78q0-13.49,0-27c0-6.83,0-6.85,7.07-6.85Z" transform="translate(-165.94 -391.88)"/><path class="cls-1" d="M1587.81,478.93h93c7.92,0,7.92,0,7.92,8.08,0,15.66.28,31.32-.08,47-.3,12.58-.88,25.18-2.21,37.68-2.57,24.11-18.28,38.32-42.23,41.84-20.87,3.06-41.77,2-62.67,2.13-29,.21-58,.06-87,.05-6.76,0-7.26-.48-7.28-7.46q0-18,0-36c0-6.52.53-7.07,7.16-7.08h123.43c1.67,0,3.34.07,5,0,11.13-.83,16.41-6.51,16.44-17.66,0-4.5-.18-9,0-13.49.19-3.87-1.23-5.36-5.18-5.26-8.49.2-17,.06-25.48.06H1494.24c-7,0-7,0-7-6.93q0-18,0-36c0-6.77.12-6.9,7.09-6.9Q1541.09,478.91,1587.81,478.93Z" transform="translate(-165.94 -391.88)"/><path class="cls-1" d="M1688.67,392.11c0,16.09.07,31.38-.14,46.67,0,1.05-1.83,2.56-3.1,3-1.66.56-3.61.32-5.44.32H1495.58c-8.59,0-9.52-1.24-7.91-9.65,1.7-8.83,3.41-17.55,9.14-25,4.79-6.2,11.28-9.47,18.19-12.55,7.33-3.26,14.9-2.81,22.51-2.81q71.71,0,143.42,0Z" transform="translate(-165.94 -391.88)"/><path class="cls-1" d="M1244.67,392.38h214.84c.11,1.69.33,3.43.34,5.18,0,12.83-.19,25.67.12,38.49.12,4.95-1.67,6.14-6.34,6.13-50.49-.14-101-.08-151.47-.08-8,0-8,0-8,7.94,0,20.83.13,41.66,0,62.49-.17,21.68,9.63,37.64,28.69,47,7.61,3.72,16.93,5.28,25.52,5.43,34.82.59,69.65.24,104.48.25,7,0,7.06,0,7.06,6.83,0,12.67-.07,25.33,0,38,0,4.1-1.18,5.82-5.74,5.79-35.83-.18-71.69.87-107.47-.36-38.76-1.33-70.28-17.12-89.87-52.23A95,95,0,0,1,1244.34,516c.1-39.16,0-78.32.05-117.48C1244.39,396.55,1244.57,394.58,1244.67,392.38Z" transform="translate(-165.94 -391.88)"/><path class="cls-1" d="M1395.69,478.94c19.49,0,39,.09,58.48-.08,4.27,0,5.87,1.17,5.78,5.65q-.37,19.49,0,39c.07,4.24-1.46,5.35-5.49,5.34-35.82-.13-71.64-.05-107.46-.1-10.44,0-16.11-5.53-16.3-15.9-.17-9.49.1-19-.11-28.49-.09-4.19,1.59-5.49,5.62-5.46C1356,479,1375.86,478.94,1395.69,478.94Z" transform="translate(-165.94 -391.88)"/><path d="M1165.62,527.27q-22.48,0-45,0c-6.62,0-7.19-.6-7.2-7.08,0-12.16,0-24.32,0-36.48,0-5.7,1.08-6.8,6.67-6.81q45.72,0,91.44,0c5.85,0,6.44.66,6.45,6.76q0,18.5,0,37c0,6.15-.4,6.6-6.45,6.62C1196.27,527.29,1180.94,527.26,1165.62,527.27Z" transform="translate(-165.94 -391.88)"/></svg>